<?xml version="1.0"?>
<svg version="1.1" xmlns="http://www.w3.org/2000/svg" width="120px" height="100px" style=""><path fill="#c1c161" d="M2.6806640625,37.4755859375q0-0.52734375,0.50537109375-0.791015625t1.0986328125-0.3955078125t1.07666015625-0.1318359375l0.4833984375,0q1.5380859375,0,2.21923828125,0.703125t1.64794921875,1.8017578125q6.591796875,9.5361328125,12.0849609375,19.62158203125t10.5908203125,20.41259765625q0.439453125-12.041015625,0.90087890625-24.23583984375t1.16455078125-24.19189453125q0-0.52734375,0.50537109375-0.87890625t1.142578125-0.52734375t1.29638671875-0.2197265625t1.0107421875-0.0439453125q0.52734375,0,1.16455078125,0.0439453125t1.2744140625,0.263671875t1.0546875,0.52734375t0.41748046875,0.8349609375q0.17578125,1.8896484375,0.19775390625,3.80126953125t0.02197265625,3.80126953125q0,14.150390625-0.615234375,27.7294921875t-0.615234375,27.421875l0,3.1640625q0,0.17578125-0.17578125,0.52734375q0.087890625,0.3515625,0.263671875,0.76904296875t0.17578125,0.59326171875q0,0.703125-0.72509765625,1.0546875t-1.58203125,0.54931640625t-1.51611328125,0.19775390625t-0.4833984375,0q-2.2412109375,0-3.779296875-1.23046875t-1.5380859375-2.9443359375q-3.251953125-7.294921875-6.48193359375-14.47998046875t-6.74560546875-14.30419921875q-2.2412109375-4.482421875-4.50439453125-8.98681640625t-4.85595703125-8.72314453125q0.087890625,0.087890625,0.087890625,0.263671875q0.439453125,4.39453125,0.94482421875,8.76708984375t0.76904296875,8.76708984375q0.17578125,3.779296875,0.3955078125,7.646484375t0.703125,7.646484375q0,1.4501953125-0.90087890625,1.845703125t-2.08740234375,0.3955078125q-1.0107421875,0-1.91162109375-0.263671875t-1.07666015625-1.318359375q0-4.04296875-0.3076171875-8.59130859375t-0.5712890625-9.16259765625q-0.439453125-6.1083984375-1.16455078125-12.41455078125t-0.72509765625-12.32666015625q0-0.263671875,0.0439453125-0.54931640625t0.0439453125-0.63720703125q-0.263671875-0.439453125-0.59326171875-0.9228515625t-0.32958984375-0.87890625z M50.610498046875,79.443359375q0-2.5048828125,0.63720703125-5.16357421875t2.021484375-4.7900390625t3.49365234375-3.4716796875t5.09765625-1.34033203125q2.2412109375,0,4.72412109375,0.76904296875t4.54833984375,2.197265625t3.36181640625,3.49365234375t1.29638671875,4.6142578125q0,3.076171875-1.12060546875,5.8447265625t-3.14208984375,4.94384765625t-4.72412109375,3.427734375t-5.86669921875,1.25244140625q-2.5927734375,0-4.5263671875-0.94482421875t-3.22998046875-2.52685546875t-1.93359375-3.7353515625t-0.63720703125-4.5703125z M57.070458984375,79.35546875q0,0.791015625,0.24169921875,2.3291015625t0.72509765625,3.01025390625t1.25244140625,2.548828125t1.86767578125,0.98876953125q2.3291015625-0.263671875,3.84521484375-1.51611328125t2.4609375-3.05419921875t1.318359375-3.9111328125t0.37353515625-3.9990234375q0-2.4169921875-0.94482421875-4.04296875t-3.09814453125-2.63671875q0,0.087890625,0.087890625,0.087890625t0.087890625-0.087890625l-1.0986328125-0.263671875q-0.439453125-0.17578125-1.07666015625-0.3955078125t-1.25244140625-0.966796875q-1.7138671875,0.615234375-2.65869140625,1.58203125t-1.42822265625,2.35107421875t-0.59326171875,3.31787109375t-0.10986328125,4.658203125z M83.90654296875,90.25390625q0.087890625-1.845703125,0.087890625-3.603515625q0-6.3720703125,0.46142578125-12.7001953125t0.63720703125-12.7001953125q0.263671875-7.294921875,0.4833984375-14.4580078125t0.87890625-14.4140625q0.17578125-1.8017578125,1.03271484375-2.35107421875t2.57080078125-0.54931640625q0.791015625,0,2.109375,0.3076171875t1.318359375,1.494140625q1.5380859375,0.17578125,3.14208984375-0.087890625t3.22998046875-0.59326171875t3.251953125-0.63720703125t3.1201171875-0.3076171875q0.3515625,0,0.98876953125,0.0439453125t1.2744140625,0.263671875t1.07666015625,0.54931640625t0.439453125,0.85693359375t-1.03271484375,0.94482421875t-2.70263671875,0.72509765625t-3.603515625,0.52734375t-3.779296875,0.37353515625t-3.27392578125,0.24169921875t-2.04345703125,0.087890625l-0.087890625,16.5234375l0.087890625,8.2177734375q1.3623046875,0,4.0869140625-0.087890625t5.60302734375,0.0439453125t5.2294921875,0.52734375t2.96630859375,1.40625q0,0.615234375-0.63720703125,0.98876953125t-1.42822265625,0.54931640625t-1.60400390625,0.2197265625t-1.16455078125,0.0439453125q-3.251953125,0-6.5478515625-0.1318359375t-6.50390625-0.52734375q0,5.4052734375-0.28564453125,10.72265625t-0.28564453125,10.72265625q0,2.3291015625,0.0439453125,4.59228515625t0.52734375,4.50439453125q1.1865234375-0.087890625,2.57080078125-0.2197265625t2.8125-0.32958984375t2.74658203125-0.32958984375t2.28515625-0.1318359375q0.52734375,0,1.42822265625,0.1318359375t1.845703125,0.41748046875t1.6259765625,0.76904296875t0.68115234375,1.0986328125q0,0.703125-1.29638671875,1.25244140625t-3.31787109375,0.87890625t-4.41650390625,0.46142578125t-4.63623046875,0.17578125t-4.04296875,0.0439453125l-2.548828125,0q-2.4169921875,0-3.53759765625-0.90087890625t-1.5380859375-2.35107421875t-0.32958984375-3.2958984375z M90.93779296875,22.841796875q0-0.52734375,0.72509765625-1.5380859375t1.669921875-1.95556640625l1.7138671875-1.7138671875t0.94482421875-0.85693359375q2.4169921875-2.1533203125,5.1416015625-2.1533203125q1.0107421875,0,2.17529296875,0.41748046875t1.16455078125,1.12060546875q0,0.439453125-0.37353515625,0.68115234375t-0.63720703125,0.41748046875q-0.52734375,0-1.16455078125,0.615234375t-1.40625,1.56005859375t-1.669921875,2.0654296875t-1.86767578125,2.13134765625q-0.615234375,0.703125-1.7578125,0.791015625t-1.58203125,0.087890625q-0.791015625,0-1.93359375-0.3515625t-1.142578125-1.318359375z"/><path fill="#" d=""/></svg>
