<?xml version="1.0"?>
<svg version="1.1" xmlns="http://www.w3.org/2000/svg" width="150px" height="150px" style=""><path fill="#c1c161" d="M3.2763671875,59.6923828125q0-0.64453125,0.61767578125-0.966796875t1.3427734375-0.4833984375t1.31591796875-0.1611328125l0.5908203125,0q1.8798828125,0,2.71240234375,0.859375t2.01416015625,2.2021484375q8.056640625,11.6552734375,14.7705078125,23.98193359375t12.9443359375,24.94873046875q0.537109375-14.716796875,1.10107421875-29.62158203125t1.42333984375-29.56787109375q0-0.64453125,0.61767578125-1.07421875t1.396484375-0.64453125t1.58447265625-0.2685546875t1.2353515625-0.0537109375q0.64453125,0,1.42333984375,0.0537109375t1.5576171875,0.322265625t1.2890625,0.64453125t0.51025390625,1.0205078125q0.21484375,2.3095703125,0.24169921875,4.64599609375t0.02685546875,4.64599609375q0,17.294921875-0.751953125,33.8916015625t-0.751953125,33.515625l0,3.8671875q0,0.21484375-0.21484375,0.64453125q0.107421875,0.4296875,0.322265625,0.93994140625t0.21484375,0.72509765625q0,0.859375-0.88623046875,1.2890625t-1.93359375,0.67138671875t-1.85302734375,0.24169921875t-0.5908203125,0q-2.7392578125,0-4.619140625-1.50390625t-1.8798828125-3.5986328125q-3.974609375-8.916015625-7.92236328125-17.69775390625t-8.24462890625-17.48291015625q-2.7392578125-5.478515625-5.50537109375-10.98388671875t-5.93505859375-10.66162109375q0.107421875,0.107421875,0.107421875,0.322265625q0.537109375,5.37109375,1.15478515625,10.71533203125t0.93994140625,10.71533203125q0.21484375,4.619140625,0.4833984375,9.345703125t0.859375,9.345703125q0,1.7724609375-1.10107421875,2.255859375t-2.55126953125,0.4833984375q-1.2353515625,0-2.33642578125-0.322265625t-1.31591796875-1.611328125q0-4.94140625-0.3759765625-10.50048828125t-0.6982421875-11.19873046875q-0.537109375-7.4658203125-1.42333984375-15.17333984375t-0.88623046875-15.06591796875q0-0.322265625,0.0537109375-0.67138671875t0.0537109375-0.77880859375q-0.322265625-0.537109375-0.72509765625-1.1279296875t-0.40283203125-1.07421875z M61.857275390625,110.986328125q0-3.0615234375,0.77880859375-6.31103515625t2.470703125-5.8544921875t4.27001953125-4.2431640625t6.23046875-1.63818359375q2.7392578125,0,5.77392578125,0.93994140625t5.55908203125,2.685546875t4.10888671875,4.27001953125t1.58447265625,5.6396484375q0,3.759765625-1.36962890625,7.1435546875t-3.84033203125,6.04248046875t-5.77392578125,4.189453125t-7.17041015625,1.53076171875q-3.1689453125,0-5.5322265625-1.15478515625t-3.94775390625-3.08837890625t-2.36328125-4.5654296875t-0.77880859375-5.5859375z M69.752783203125,110.87890625q0,0.966796875,0.29541015625,2.8466796875t0.88623046875,3.67919921875t1.53076171875,3.115234375t2.28271484375,1.20849609375q2.8466796875-0.322265625,4.69970703125-1.85302734375t3.0078125-3.73291015625t1.611328125-4.7802734375t0.45654296875-4.8876953125q0-2.9541015625-1.15478515625-4.94140625t-3.78662109375-3.22265625q0,0.107421875,0.107421875,0.107421875t0.107421875-0.107421875l-1.3427734375-0.322265625q-0.537109375-0.21484375-1.31591796875-0.4833984375t-1.53076171875-1.181640625q-2.0947265625,0.751953125-3.24951171875,1.93359375t-1.74560546875,2.87353515625t-0.72509765625,4.05517578125t-0.13427734375,5.693359375z M102.55244140625,124.19921875q0.107421875-2.255859375,0.107421875-4.404296875q0-7.7880859375,0.56396484375-15.5224609375t0.77880859375-15.5224609375q0.322265625-8.916015625,0.5908203125-17.6708984375t1.07421875-17.6171875q0.21484375-2.2021484375,1.26220703125-2.87353515625t3.14208984375-0.67138671875q0.966796875,0,2.578125,0.3759765625t1.611328125,1.826171875q1.8798828125,0.21484375,3.84033203125-0.107421875t3.94775390625-0.72509765625t3.974609375-0.77880859375t3.8134765625-0.3759765625q0.4296875,0,1.20849609375,0.0537109375t1.5576171875,0.322265625t1.31591796875,0.67138671875t0.537109375,1.04736328125t-1.26220703125,1.15478515625t-3.30322265625,0.88623046875t-4.404296875,0.64453125t-4.619140625,0.45654296875t-4.00146484375,0.29541015625t-2.49755859375,0.107421875l-0.107421875,20.1953125l0.107421875,10.0439453125q1.6650390625,0,4.9951171875-0.107421875t6.84814453125,0.0537109375t6.3916015625,0.64453125t3.62548828125,1.71875q0,0.751953125-0.77880859375,1.20849609375t-1.74560546875,0.67138671875t-1.96044921875,0.2685546875t-1.42333984375,0.0537109375q-3.974609375,0-8.0029296875-0.1611328125t-7.94921875-0.64453125q0,6.6064453125-0.34912109375,13.10546875t-0.34912109375,13.10546875q0,2.8466796875,0.0537109375,5.61279296875t0.64453125,5.50537109375q1.4501953125-0.107421875,3.14208984375-0.2685546875t3.4375-0.40283203125t3.35693359375-0.40283203125t2.79296875-0.1611328125q0.64453125,0,1.74560546875,0.1611328125t2.255859375,0.51025390625t1.9873046875,0.93994140625t0.83251953125,1.3427734375q0,0.859375-1.58447265625,1.53076171875t-4.05517578125,1.07421875t-5.39794921875,0.56396484375t-5.66650390625,0.21484375t-4.94140625,0.0537109375l-3.115234375,0q-2.9541015625,0-4.32373046875-1.10107421875t-1.8798828125-2.87353515625t-0.40283203125-4.0283203125z M111.14619140625,41.806640625q0-0.64453125,0.88623046875-1.8798828125t2.041015625-2.39013671875l2.0947265625-2.0947265625t1.15478515625-1.04736328125q2.9541015625-2.6318359375,6.2841796875-2.6318359375q1.2353515625,0,2.65869140625,0.51025390625t1.42333984375,1.36962890625q0,0.537109375-0.45654296875,0.83251953125t-0.77880859375,0.51025390625q-0.64453125,0-1.42333984375,0.751953125t-1.71875,1.90673828125t-2.041015625,2.5244140625t-2.28271484375,2.60498046875q-0.751953125,0.859375-2.1484375,0.966796875t-1.93359375,0.107421875q-0.966796875,0-2.36328125-0.4296875t-1.396484375-1.611328125z"/><path fill="#" d=""/></svg>
